<svg width="800" height="800" viewBox="0 0 800 800" fill="none" xmlns="http://www.w3.org/2000/svg">
<g clip-path="url(#clip0_2_6)">
<path d="M779.753 799.588C790.947 799.588 800 790.535 800 779.342V187.078C800 181.152 797.366 175.556 792.922 171.77L597.531 4.69139C597.202 4.36217 596.872 4.19756 596.543 4.03295C596.049 3.70374 595.72 3.37452 595.226 3.0453C594.568 2.71608 594.074 2.38686 593.416 2.05764C592.922 1.89304 592.428 1.56382 591.934 1.39921C591.276 1.06999 590.453 0.905382 589.794 0.740773C589.3 0.576164 588.807 0.411555 588.313 0.411555C586.996 0.246945 585.844 0.0823364 584.527 0.0823364H20.2469C9.0535 0.0823364 0 9.13583 0 20.3292V779.671C0 790.864 9.0535 799.918 20.2469 799.918H779.753V799.588ZM632.922 759.259H167.078V456.214C167.078 450.123 172.016 445.35 177.942 445.35H622.058C628.148 445.35 632.922 450.288 632.922 456.214V759.259ZM266.337 40.2469H564.115V250.617C564.115 251.934 563.128 252.922 561.811 252.922H268.807C267.49 252.922 266.502 251.77 266.502 250.617V40.2469H266.337ZM40.4938 40.2469H226.173V250.617C226.173 274.156 245.267 293.251 268.807 293.251H561.811C585.35 293.251 604.444 274.156 604.444 250.617V63.786L759.506 196.461V759.259H673.251V456.214C673.251 427.901 650.206 405.021 622.058 405.021H177.942C149.63 405.021 126.749 428.066 126.749 456.214V759.424H40.4938V40.2469Z" fill="#90919C"/>
<path d="M374.321 127.819H462.881V181.482C462.881 192.675 471.934 201.728 483.128 201.728C494.321 201.728 503.374 192.675 503.374 181.482V107.737C503.374 96.5432 494.321 87.4897 483.128 87.4897H374.321C363.128 87.4897 354.074 96.5432 354.074 107.737C354.074 118.93 363.292 127.819 374.321 127.819Z" fill="#90919C"/>
<path d="M501.235 531.44H298.765C287.572 531.44 278.519 540.494 278.519 551.687C278.519 562.881 287.572 571.934 298.765 571.934H501.235C512.428 571.934 521.481 562.881 521.481 551.687C521.481 540.494 512.428 531.44 501.235 531.44Z" fill="#90919C"/>
<path d="M501.235 638.272H298.765C287.572 638.272 278.519 647.325 278.519 658.518C278.519 669.712 287.572 678.765 298.765 678.765H501.235C512.428 678.765 521.481 669.712 521.481 658.518C521.481 647.325 512.428 638.272 501.235 638.272Z" fill="#90919C"/>
</g>
<defs>
<clipPath id="clip0_2_6">
<rect width="800" height="800" fill="white"/>
</clipPath>
</defs>
</svg>
